# xmcd CD database file
#
# Track frame offsets:
#	150
#	16817
#	31877
#	46047
#	63417
#	79317
#	94527
#	108477
#	122847
#	137047
#
# Disc length: 2038 seconds
#
# Revision: 3
# Processed by: cddbd v1.5.1PL0 Copyright (c) Steve Scherf et al.
# Submitted via: CDex 1.51
#
DISCID=7807f40a
DTITLE=Nitty Gritty Dirt Band - Vol. II - More Great Dirt..........
DYEAR=1989
DGENRE=Country
TTITLE0=Cadillac Ranch
TTITLE1=I've Been Lookin'
TTITLE2=Oh What A Love
TTITLE3=Workin' Man (Nowhere To Go)
TTITLE4=I Love Only You
TTITLE5=Fishin' In The Dark
TTITLE6=Baby's Got A Hold On Me
TTITLE7=Face On The Cutting Room Floor
TTITLE8=Down That Road Tonight
TTITLE9=Home Again In My Heart
EXTD=YEAR: 1989
EXTT0=
EXTT1=
EXTT2=
EXTT3=
EXTT4=
EXTT5=
EXTT6=
EXTT7=
EXTT8=
EXTT9=
PLAYORDER=
